<svg width="81" height="61" viewBox="0 0 81 61" fill="none" xmlns="http://www.w3.org/2000/svg">
<g filter="url(#filter0_d_150_17)">
<path d="M59.2725 24.6148L57.7578 20.8279L55.0719 14.1125C52.7661 8.34857 47.2663 4.625 41.0576 4.625H23.9424C17.7351 4.625 12.2339 8.34857 9.92811 14.1125L7.24223 20.8279L5.72746 24.6148C2.47691 25.8506 0.15625 28.9718 0.15625 32.6562V39.125C0.15625 41.2974 0.986406 43.2583 2.3125 44.7757V52.0625C2.3125 54.4438 4.24369 56.375 6.625 56.375H10.9375C13.3188 56.375 15.25 54.4438 15.25 52.0625V47.75H49.75V52.0625C49.75 54.4438 51.6812 56.375 54.0625 56.375H58.375C60.7563 56.375 62.6875 54.4438 62.6875 52.0625V44.7757C64.0136 43.2596 64.8438 41.2988 64.8438 39.125V32.6562C64.8438 28.9718 62.5231 25.8506 59.2725 24.6148ZM17.9359 17.3159C18.9183 14.8604 21.2969 13.25 23.9424 13.25H41.0576C43.7031 13.25 46.0817 14.8604 47.0641 17.3159L49.75 24.0312H15.25L17.9359 17.3159ZM10.9375 39.098C8.35 39.098 6.625 37.3784 6.625 34.799C6.625 32.2196 8.35 30.5 10.9375 30.5C13.525 30.5 17.4062 34.3691 17.4062 36.9485C17.4062 39.528 13.525 39.098 10.9375 39.098ZM54.0625 39.098C51.475 39.098 47.5938 39.528 47.5938 36.9485C47.5938 34.3691 51.475 30.5 54.0625 30.5C56.65 30.5 58.375 32.2196 58.375 34.799C58.375 37.3784 56.65 39.098 54.0625 39.098Z" fill="#7A7777"/>
</g>
<defs>
<filter id="filter0_d_150_17" x="0.15625" y="0.625" width="80.6875" height="59.75" filterUnits="userSpaceOnUse" color-interpolation-filters="sRGB">
<feFlood flood-opacity="0" result="BackgroundImageFix"/>
<feColorMatrix in="SourceAlpha" type="matrix" values="0 0 0 0 0 0 0 0 0 0 0 0 0 0 0 0 0 0 127 0" result="hardAlpha"/>
<feOffset dx="12"/>
<feGaussianBlur stdDeviation="2"/>
<feComposite in2="hardAlpha" operator="out"/>
<feColorMatrix type="matrix" values="0 0 0 0 0 0 0 0 0 0 0 0 0 0 0 0 0 0 0.25 0"/>
<feBlend mode="normal" in2="BackgroundImageFix" result="effect1_dropShadow_150_17"/>
<feBlend mode="normal" in="SourceGraphic" in2="effect1_dropShadow_150_17" result="shape"/>
</filter>
</defs>
</svg>
