<svg width="25" height="18" viewBox="0 0 25 18" fill="none" xmlns="http://www.w3.org/2000/svg">
<path d="M24.8489 8.36632C22.4952 3.77388 17.8355 0.666672 12.5 0.666672C7.16447 0.666672 2.50345 3.77605 0.151018 8.36676C0.0517306 8.56316 0 8.78015 0 9.00022C0 9.22029 0.0517306 9.43728 0.151018 9.63369C2.50475 14.2261 7.16447 17.3333 12.5 17.3333C17.8355 17.3333 22.4965 14.224 24.8489 9.63325C24.9482 9.43685 25 9.21986 25 8.99979C25 8.77972 24.9482 8.56273 24.8489 8.36632ZM12.5 15.25C11.2638 15.25 10.0555 14.8834 9.02766 14.1967C7.99985 13.5099 7.19878 12.5338 6.72573 11.3918C6.25268 10.2497 6.12891 8.99307 6.37007 7.78069C6.61123 6.56831 7.20648 5.45467 8.08056 4.58059C8.95464 3.70651 10.0683 3.11125 11.2807 2.8701C12.493 2.62894 13.7497 2.75271 14.8917 3.22576C16.0338 3.69881 17.0099 4.49988 17.6967 5.52769C18.3834 6.5555 18.75 7.76387 18.75 9C18.7504 9.82088 18.589 10.6338 18.275 11.3922C17.9611 12.1507 17.5007 12.8399 16.9203 13.4203C16.3398 14.0008 15.6507 14.4611 14.8922 14.7751C14.1338 15.089 13.3209 15.2504 12.5 15.25ZM12.5 4.83334C12.1281 4.83854 11.7586 4.89387 11.4015 4.99783C11.6958 5.39787 11.8371 5.89015 11.7996 6.3854C11.7621 6.88065 11.5484 7.34607 11.1972 7.69727C10.846 8.04847 10.3806 8.26217 9.88537 8.29964C9.39012 8.33711 8.89784 8.19585 8.49781 7.90148C8.27001 8.74071 8.31113 9.63025 8.61538 10.4449C8.91962 11.2595 9.47167 11.9582 10.1938 12.4427C10.916 12.9271 11.7719 13.1729 12.641 13.1455C13.5102 13.118 14.3489 12.8187 15.039 12.2896C15.7291 11.7606 16.236 11.0284 16.4882 10.1962C16.7404 9.36396 16.7253 8.47361 16.445 7.65043C16.1647 6.82725 15.6333 6.11269 14.9256 5.60734C14.2179 5.10199 13.3696 4.83129 12.5 4.83334Z" fill="#D5BFDF"/>
</svg>
