<svg width="70" height="70" viewBox="0 0 70 70" fill="none" xmlns="http://www.w3.org/2000/svg">
<path d="M59.0625 4.375H10.9375C9.19702 4.375 7.52782 5.0664 6.29711 6.29711C5.0664 7.52782 4.375 9.19702 4.375 10.9375L4.375 59.0625C4.375 60.803 5.0664 62.4722 6.29711 63.7029C7.52782 64.9336 9.19702 65.625 10.9375 65.625H29.7021V44.8014H21.0889V35H29.7021V27.5297C29.7021 19.0326 34.7607 14.3391 42.5086 14.3391C46.2191 14.3391 50.0992 15.0008 50.0992 15.0008V23.3406H45.824C41.6117 23.3406 40.2979 25.9547 40.2979 28.6357V35H49.7014L48.1975 44.8014H40.2979V65.625H59.0625C60.803 65.625 62.4722 64.9336 63.7029 63.7029C64.9336 62.4722 65.625 60.803 65.625 59.0625V10.9375C65.625 9.19702 64.9336 7.52782 63.7029 6.29711C62.4722 5.0664 60.803 4.375 59.0625 4.375Z" fill="#D5BFDF"/>
</svg>
