<svg width="70" height="70" viewBox="0 0 70 70" fill="none" xmlns="http://www.w3.org/2000/svg">
<path d="M35.0137 19.2773C26.3184 19.2773 19.3047 26.291 19.3047 34.9863C19.3047 43.6816 26.3184 50.6953 35.0137 50.6953C43.709 50.6953 50.7227 43.6816 50.7227 34.9863C50.7227 26.291 43.709 19.2773 35.0137 19.2773ZM35.0137 45.1992C29.3945 45.1992 24.8008 40.6191 24.8008 34.9863C24.8008 29.3535 29.3809 24.7734 35.0137 24.7734C40.6465 24.7734 45.2266 29.3535 45.2266 34.9863C45.2266 40.6191 40.6328 45.1992 35.0137 45.1992ZM55.0293 18.6348C55.0293 20.6719 53.3887 22.2988 51.3652 22.2988C49.3281 22.2988 47.7012 20.6582 47.7012 18.6348C47.7012 16.6113 49.3418 14.9707 51.3652 14.9707C53.3887 14.9707 55.0293 16.6113 55.0293 18.6348ZM65.4336 22.3535C65.2012 17.4453 64.0801 13.0977 60.4844 9.51562C56.9023 5.93359 52.5547 4.8125 47.6465 4.56641C42.5879 4.2793 27.4258 4.2793 22.3672 4.56641C17.4727 4.79883 13.125 5.91992 9.5293 9.50195C5.93359 13.084 4.82617 17.4316 4.58008 22.3398C4.29297 27.3984 4.29297 42.5605 4.58008 47.6191C4.8125 52.5273 5.93359 56.875 9.5293 60.457C13.125 64.0391 17.459 65.1602 22.3672 65.4062C27.4258 65.6934 42.5879 65.6934 47.6465 65.4062C52.5547 65.1738 56.9023 64.0527 60.4844 60.457C64.0664 56.875 65.1875 52.5273 65.4336 47.6191C65.7207 42.5605 65.7207 27.4121 65.4336 22.3535ZM58.8984 53.0469C57.832 55.7266 55.7676 57.791 53.0742 58.8711C49.041 60.4707 39.4707 60.1016 35.0137 60.1016C30.5566 60.1016 20.9727 60.457 16.9531 58.8711C14.2734 57.8047 12.209 55.7402 11.1289 53.0469C9.5293 49.0137 9.89844 39.4434 9.89844 34.9863C9.89844 30.5293 9.54297 20.9453 11.1289 16.9258C12.1953 14.2461 14.2598 12.1816 16.9531 11.1016C20.9863 9.50195 30.5566 9.87109 35.0137 9.87109C39.4707 9.87109 49.0547 9.51562 53.0742 11.1016C55.7539 12.168 57.8184 14.2324 58.8984 16.9258C60.498 20.959 60.1289 30.5293 60.1289 34.9863C60.1289 39.4434 60.498 49.0273 58.8984 53.0469Z" fill="#D5BFDF"/>
</svg>
