<svg width="70" height="70" viewBox="0 0 70 70" fill="none" xmlns="http://www.w3.org/2000/svg">
<path d="M61.25 4.375H8.73633C6.33008 4.375 4.375 6.35742 4.375 8.79102V61.209C4.375 63.6426 6.33008 65.625 8.73633 65.625H61.25C63.6562 65.625 65.625 63.6426 65.625 61.209V8.79102C65.625 6.35742 63.6562 4.375 61.25 4.375ZM22.8867 56.875H13.8086V27.6445H22.9004V56.875H22.8867ZM18.3477 23.6523C15.4355 23.6523 13.084 21.2871 13.084 18.3887C13.084 15.4902 15.4355 13.125 18.3477 13.125C21.2461 13.125 23.6113 15.4902 23.6113 18.3887C23.6113 21.3008 21.2598 23.6523 18.3477 23.6523ZM56.916 56.875H47.8379V42.6562C47.8379 39.2656 47.7695 34.9043 43.1211 34.9043C38.3906 34.9043 37.666 38.5957 37.666 42.4102V56.875H28.5879V27.6445H37.2969V31.6367H37.4199C38.6367 29.3398 41.6035 26.9199 46.0195 26.9199C55.207 26.9199 56.916 32.9766 56.916 40.8516V56.875Z" fill="#D5BFDF"/>
</svg>
